<?xml version="1.0" encoding="UTF-8"?><svg id="Layer_1" xmlns="http://www.w3.org/2000/svg" viewBox="0 0 936.82 940.55"><defs><style>.cls-1{fill:#7d030e;}</style></defs><path class="cls-1" d="M857.09,252.92h-483.89v6.64c16.61,13.66,28.14,30.37,34.6,50.11,6.46,19.75,9.69,48.44,9.69,86.09v150.53l-126.1,1.36H44.66C254.43,298.2,337.02,124.72,405.05,0h-142C263.05,85.03,92.97,413.86,0,547.65v31.53h417.5v218.52c0,37.65-3.23,66.35-9.69,86.09-6.46,19.75-17.99,36.46-34.6,50.11v6.64h177.72v-5.54c-29.53-30.63-44.29-63.85-44.29-99.66v-235.02c0-9.22-.37-17.16-1.11-23.81,6.64.75,14.58,1.11,23.81,1.11h79.59c41.34,0,71.23,4.9,89.69,14.67,18.45,9.79,33.96,28.71,46.51,56.75h11.07v-173.29h-12.18c-9.23,24.36-24,42.18-44.29,53.43-20.3,11.27-47.43,16.89-81.39,16.89h-89c-9.23,0-17.16.38-23.81,1.11.74-6.64,1.11-14.57,1.11-23.81v-181.87c0-16.97,5.35-37.09,16.06-60.35h131.77c26.58,0,55.18,2.21,85.82,6.64,28.05,2.59,50.66,6.56,67.82,11.9,17.16,5.36,34.23,13.56,51.21,24.64,2.58,1.48,4.89,2.87,6.92,4.15,2.03,1.3,3.88,2.59,5.54,3.88,1.66,1.3,3.96,3.14,6.92,5.54,2.95,2.41,5.63,4.62,8.03,6.64,2.4,2.04,6.64,5.45,12.73,10.24,6.09,4.81,11.72,9.41,16.89,13.84,2.58,0,5.17,1.85,7.75,5.54l12.73-12.18-79.73-109.07Z"/></svg>