<?xml version="1.0" encoding="UTF-8"?><svg id="Layer_1" xmlns="http://www.w3.org/2000/svg" viewBox="0 0 1246.26 577.04"><defs><style>.cls-1{fill:#d7cec2;}</style></defs><path class="cls-1" d="M1246.26,484.32v30.75h-37.4v56.64h-34.23v-56.64h-131.6v-26.64l96.64-149.76h39.07l-92.44,145.64h88.32v-71.62h34.23v71.62h37.4Z"/><polygon class="cls-1" points="0 571.71 32.6 571.71 32.6 470.66 117.64 470.66 117.64 439.73 32.6 439.73 32.6 369.94 151.99 369.94 151.99 338.68 0 338.68 0 571.71"/><path class="cls-1" d="M288.15,333.34c-33.83,0-62.96,11.92-86.58,35.43-23.63,23.51-35.61,52.59-35.61,86.43s11.98,62.91,35.6,86.42c23.62,23.51,52.75,35.43,86.58,35.43s62.25-11.98,85.76-35.6c23.51-23.62,35.43-52.64,35.43-86.25s-11.92-62.62-35.43-86.25c-23.51-23.63-52.37-35.61-85.76-35.61ZM377.07,455.19c0,25.27-8.62,46.92-25.63,64.35-16.98,17.41-38.27,26.23-63.29,26.23s-46.72-8.78-63.81-26.08c-17.11-17.32-25.78-39.02-25.78-64.5s8.67-47.12,25.77-64.33c17.1-17.2,38.57-25.92,63.82-25.92s46.32,8.77,63.3,26.08c17,17.32,25.62,38.91,25.62,64.18Z"/><path class="cls-1" d="M609.34,450.24c10.69-12.32,16.11-26.92,16.11-43.41,0-19.51-7.31-35.95-21.72-48.85-14.31-12.81-32.41-19.3-53.78-19.3h-100.17v233.03h32.6v-96.05h53.15l58.36,96.05h37.65l-59.66-98.76c15.14-3.87,27.74-11.49,37.47-22.71ZM593.18,407.17c0,10.72-3.85,19.34-11.78,26.34-7.93,7-18.51,10.55-31.45,10.55h-67.57v-74.12h67.57c12.72,0,23.25,3.56,31.29,10.57,8.03,7,11.94,15.72,11.94,26.66Z"/><polygon class="cls-1" points="656.63 369.94 729.33 369.94 729.33 571.71 761.6 571.71 761.6 369.94 833.96 369.94 833.96 338.68 656.63 338.68 656.63 369.94"/><polygon class="cls-1" points="1036.61 338.68 967.6 444.47 898.59 338.68 859.37 338.68 951.46 476.82 951.46 571.71 983.73 571.71 983.73 476.82 1075.82 338.68 1036.61 338.68"/><path class="cls-1" d="M1.46,208.59v-51.68h7.38c.8,7.78,2.32,14.25,4.55,19.4,2.23,5.15,5.92,10.87,11.07,17.17,9.04,12.02,20.14,21.4,33.31,28.16,13.16,6.75,26.89,10.13,41.2,10.13,19.68,0,36.54-5.92,50.56-17.77,14.02-11.85,21.03-26.07,21.03-42.66,0-19.34-10.07-34.45-30.22-45.32-6.98-4.12-18.54-8.81-34.68-14.08-1.83-.57-7.07-2.09-15.71-4.55-8.64-2.46-16.11-4.72-22.4-6.78-19.91-5.84-34.19-12.7-42.83-20.6-8.64-7.9-12.96-18.03-12.96-30.39,0-13.96,6.21-25.67,18.63-35.11C42.8,5.06,58.17.34,76.48.34c19.8,0,39.26,3.66,58.37,10.99,8.24,2.86,15.97,5.9,23.18,9.1l13.73,40.52-4.29,1.72c-13.85-18.88-27.41-32.28-40.69-40.17-13.28-7.9-29.13-11.85-47.56-11.85-14.19,0-25.35,2.75-33.48,8.24-8.13,5.49-12.19,13.16-12.19,23,0,8.7,4.06,15.74,12.19,21.12,3.89,2.52,8.04,4.64,12.45,6.35,4.4,1.72,11.64,3.95,21.72,6.7l39.83,11.16c51.5,14.42,77.26,39.89,77.26,76.4,0,22.66-9.33,41.52-27.98,56.57-18.66,15.05-42.12,22.58-70.39,22.58-16.25,0-31.39-2.46-45.41-7.38-14.02-4.92-31.27-13.85-51.76-26.78Z"/><path class="cls-1" d="M329.21,236.74v2.06h-55.62v-2.06c5.38-4.23,9.07-9.38,11.07-15.45,2-6.06,3-14.99,3-26.78V19.06c0-2.4.11-4.4.34-6.01-12.94.92-22.12,1.89-27.55,2.92-5.44,1.03-11.24,2.98-17.43,5.84-12.82,6.18-23.58,15.34-32.28,27.47h-5.67l19.4-44.98h153.31l18.88,44.98h-5.32c-8.47-12.82-18.28-21.83-29.44-27.04-11.16-5.21-26.76-8.27-46.78-9.18v181.46c0,11.79,1,20.72,3,26.78,2,6.07,5.69,11.22,11.07,15.45Z"/><path class="cls-1" d="M673.96,238.8v-2.06c9.84-4,14.76-18.08,14.76-42.23V48.59c0-11.33-1.12-20.14-3.35-26.44-2.23-6.29-6.04-11.56-11.42-15.79v-2.06h84.29c2.98,0,8.98.46,18.03,1.37,19.57,1.49,37.23,7.33,52.96,17.51,15.73,10.19,28.01,23.46,36.83,39.83,8.81,16.37,13.22,34.28,13.22,53.74,0,22.43-5.04,42.75-15.11,60.95-10.07,18.2-24.38,32.85-42.92,43.95-10.53,6.3-21.75,10.73-33.65,13.31-11.91,2.58-27.07,3.86-45.49,3.86h-68.16ZM722.37,228.33h18.37c27.01,0,50.41-8.24,70.22-24.72,23.92-20.83,35.88-48.59,35.88-83.26,0-22.89-4.89-42.92-14.68-60.09-9.79-17.17-23.49-29.87-41.12-38.11-13.16-6.06-29.47-9.1-48.93-9.1h-18.37c-4.92,7.33-7.38,17.17-7.38,29.53v151.94c0,13.16,2,24.44,6.01,33.82Z"/><path class="cls-1" d="M965.99,238.8h-55.45v-2.06c5.38-4.23,9.07-9.38,11.07-15.45,2-6.06,3-14.99,3-26.78V48.59c0-11.79-1-20.71-3-26.78-2-6.06-5.69-11.21-11.07-15.45v-2.06h55.45v2.06c-5.27,4.12-8.84,9.18-10.73,15.19-1.89,6.01-2.83,15.02-2.83,27.04v145.93c0,12.02.94,21.03,2.83,27.04,1.89,6.01,5.46,11.07,10.73,15.19v2.06Z"/><path class="cls-1" d="M1120.34,0c17.05,0,33.25,3.12,48.59,9.36,15.34,6.24,28.56,14.71,39.66,25.41,11.1,10.7,19.91,23.55,26.44,38.54,6.52,15,9.79,30.79,9.79,47.38,0,17.51-3.86,34.54-11.59,51.07-7.73,16.54-18.4,30.82-32.02,42.83-23.24,18.77-50.19,28.16-80.86,28.16-39.83,0-71.93-14.53-96.31-43.61-9.04-11.44-16.05-23.92-21.03-37.43-4.98-13.5-7.47-27.18-7.47-41.03,0-16.59,3.23-32.36,9.7-47.3,6.46-14.94,15.25-27.75,26.35-38.46,11.1-10.7,24.38-19.2,39.83-25.49,15.45-6.29,31.76-9.44,48.93-9.44ZM1080.13,17.32c-11.83,4.64-19.53,11.28-28.45,20.81-8.92,9.53-15.44,20.64-19.56,33.32-3.77,11.07-5.1,23.89-3.99,38.45,1.11,14.57,4.57,29.25,10.39,44.06,15.02,38.25,37.01,61.83,65.96,70.75,21.1,7.09,38.36,7.39,57.11.03,11.61-4.56,18.85-11.22,28.03-21.03,9.18-9.81,15.84-20.88,19.98-33.2,3.83-10.6,5.1-23.33,3.81-38.2-1.29-14.86-4.8-29.59-10.53-44.19-14.68-37.39-36.65-61.23-65.89-71.51-21.36-6.49-38.21-6.6-56.85.72Z"/><path class="cls-1" d="M623.95,222.57c-1.81-5.82-2.74-14.35-2.82-25.53-.04,0-.08,0-.12.01-.02-1.24-.09-2.5-.09-3.74V47.82c0-8.3.55-16.78,1.53-25.41.21-.83.44-1.62.68-2.36,2-6.12,5.58-11.3,10.73-15.54v-2.06h-55.11v2.06c5.38,4.12,9.01,9.21,10.9,15.28.7,2.26,1.27,4.95,1.71,8.03.61,6.77.94,13.44.94,20v139.44c-12.03,22.06-39.15,33.06-66.36,33.06-17.23,0-37.8-9.09-47.44-20.88-9.64-11.79-14.45-33.78-14.45-65.97,0,0,.41-88.55.59-88.46.1-10.81,1.08-19.15,2.98-24.96,2-6.12,5.83-11.3,10.98-15.54v-2.06h-55.35v2.06c5.38,4.12,9.01,9.21,10.9,15.28,1.81,5.82,2.74,14.35,2.82,25.53.03,0,.13,91.55.13,91.55,0,15.64,1.41,30.66,4.25,45.06,2.83,14.4,9.28,29.94,22.27,41.02,16.85,14.37,38.44,15.73,53.14,15.73,20.86,0,41.05,3.56,60.41-14.62,5.06-4.75,10.77-10.53,15.13-15.91v25.11c-.05,4.01-.08,5.68-.08,5.68h42.62v-2.06c-5.38-4.12-9.01-8.23-10.9-14.29Z"/></svg>