<?xml version="1.0" encoding="UTF-8"?><svg id="Layer_1" xmlns="http://www.w3.org/2000/svg" viewBox="0 0 2540.36 626.8"><path d="M2540.36,150.98v30.75h-37.4v56.64h-34.23v-56.64h-131.6v-26.64l96.64-149.76h39.07l-92.44,145.64h88.32v-71.62h34.23v71.62h37.4Z"/><polygon points="1294.1 238.37 1326.7 238.37 1326.7 137.32 1411.74 137.32 1411.74 106.39 1326.7 106.39 1326.7 36.6 1446.09 36.6 1446.09 5.34 1294.1 5.34 1294.1 238.37"/><path d="M1582.26,0c-33.83,0-62.96,11.92-86.58,35.43-23.63,23.51-35.61,52.59-35.61,86.43s11.98,62.91,35.6,86.42c23.62,23.51,52.75,35.43,86.58,35.43s62.25-11.98,85.76-35.6c23.51-23.62,35.43-52.64,35.43-86.25s-11.92-62.62-35.43-86.25c-23.51-23.63-52.37-35.61-85.76-35.61ZM1671.17,121.85c0,25.27-8.62,46.92-25.63,64.35-16.98,17.41-38.27,26.23-63.29,26.23s-46.72-8.78-63.81-26.08c-17.11-17.32-25.78-39.02-25.78-64.5s8.67-47.12,25.77-64.33c17.1-17.2,38.57-25.92,63.82-25.92s46.32,8.77,63.3,26.08c17,17.32,25.62,38.91,25.62,64.18Z"/><path d="M1903.44,116.9c10.69-12.32,16.11-26.92,16.11-43.41,0-19.51-7.31-35.95-21.72-48.85-14.31-12.81-32.41-19.3-53.78-19.3h-100.17v233.03h32.6v-96.05h53.15l58.36,96.05h37.65l-59.66-98.76c15.14-3.87,27.74-11.49,37.47-22.71ZM1887.28,73.83c0,10.72-3.85,19.34-11.78,26.34-7.93,7-18.51,10.55-31.45,10.55h-67.57V36.6h67.57c12.72,0,23.25,3.56,31.29,10.57,8.03,7,11.94,15.72,11.94,26.66Z"/><polygon points="1950.73 36.6 2023.43 36.6 2023.43 238.37 2055.7 238.37 2055.7 36.6 2128.06 36.6 2128.06 5.34 1950.73 5.34 1950.73 36.6"/><polygon points="2330.71 5.34 2261.7 111.13 2192.69 5.34 2153.47 5.34 2245.57 143.48 2245.57 238.37 2277.83 238.37 2277.83 143.48 2369.92 5.34 2330.71 5.34"/><path d="M0,209.54v-51.68h7.38c.8,7.78,2.32,14.25,4.55,19.4,2.23,5.15,5.92,10.87,11.07,17.17,9.04,12.02,20.14,21.4,33.31,28.16,13.16,6.75,26.89,10.13,41.2,10.13,19.68,0,36.54-5.92,50.56-17.77,14.02-11.85,21.03-26.07,21.03-42.66,0-19.34-10.07-34.45-30.22-45.32-6.98-4.12-18.54-8.81-34.68-14.08-1.83-.57-7.07-2.09-15.71-4.55-8.64-2.46-16.11-4.72-22.4-6.78-19.91-5.84-34.19-12.7-42.83-20.6-8.64-7.9-12.96-18.03-12.96-30.39,0-13.96,6.21-25.67,18.63-35.11C41.35,6.01,56.71,1.29,75.02,1.29c19.8,0,39.26,3.66,58.37,10.99,8.24,2.86,15.97,5.9,23.18,9.1l13.73,40.52-4.29,1.72c-13.85-18.88-27.41-32.28-40.69-40.17-13.28-7.9-29.13-11.85-47.56-11.85-14.19,0-25.35,2.75-33.48,8.24-8.13,5.49-12.19,13.16-12.19,23,0,8.7,4.06,15.74,12.19,21.12,3.89,2.52,8.04,4.64,12.45,6.35,4.4,1.72,11.64,3.95,21.72,6.7l39.83,11.16c51.5,14.42,77.26,39.89,77.26,76.4,0,22.66-9.33,41.52-27.98,56.57-18.66,15.05-42.12,22.58-70.39,22.58-16.25,0-31.39-2.46-45.41-7.38-14.02-4.92-31.27-13.85-51.76-26.78Z"/><path d="M327.75,237.69v2.06h-55.62v-2.06c5.38-4.23,9.07-9.38,11.07-15.45,2-6.06,3-14.99,3-26.78V20.01c0-2.4.11-4.4.34-6.01-12.94.92-22.12,1.89-27.55,2.92-5.44,1.03-11.24,2.98-17.43,5.84-12.82,6.18-23.58,15.34-32.28,27.47h-5.67l19.4-44.98h153.31l18.88,44.98h-5.32c-8.47-12.82-18.28-21.83-29.44-27.04-11.16-5.21-26.76-8.27-46.78-9.18v181.46c0,11.79,1,20.72,3,26.78,2,6.07,5.69,11.22,11.07,15.45Z"/><path d="M672.5,239.75v-2.06c9.84-4,14.76-18.08,14.76-42.23V49.53c0-11.33-1.12-20.14-3.35-26.44-2.23-6.29-6.04-11.56-11.42-15.79v-2.06h84.29c2.98,0,8.98.46,18.03,1.37,19.57,1.49,37.23,7.33,52.96,17.51,15.73,10.19,28.01,23.46,36.83,39.83,8.81,16.37,13.22,34.28,13.22,53.74,0,22.43-5.04,42.75-15.11,60.95-10.07,18.2-24.38,32.85-42.92,43.95-10.53,6.3-21.75,10.73-33.65,13.31-11.91,2.58-27.07,3.86-45.49,3.86h-68.16ZM720.92,229.28h18.37c27.01,0,50.41-8.24,70.22-24.72,23.92-20.83,35.88-48.59,35.88-83.26,0-22.89-4.89-42.92-14.68-60.09-9.79-17.17-23.49-29.87-41.12-38.11-13.16-6.06-29.47-9.1-48.93-9.1h-18.37c-4.92,7.33-7.38,17.17-7.38,29.53v151.94c0,13.16,2,24.44,6.01,33.82Z"/><path d="M964.53,239.75h-55.45v-2.06c5.38-4.23,9.07-9.38,11.07-15.45,2-6.06,3-14.99,3-26.78V49.53c0-11.79-1-20.71-3-26.78-2-6.06-5.69-11.21-11.07-15.45v-2.06h55.45v2.06c-5.27,4.12-8.84,9.18-10.73,15.19-1.89,6.01-2.83,15.02-2.83,27.04v145.93c0,12.02.94,21.03,2.83,27.04,1.89,6.01,5.46,11.07,10.73,15.19v2.06Z"/><path d="M1118.88.95c17.05,0,33.25,3.12,48.59,9.36,15.34,6.24,28.56,14.71,39.66,25.41,11.1,10.7,19.91,23.55,26.44,38.54,6.52,15,9.79,30.79,9.79,47.38,0,17.51-3.86,34.54-11.59,51.07-7.73,16.54-18.4,30.82-32.02,42.83-23.24,18.77-50.19,28.16-80.86,28.16-39.83,0-71.93-14.53-96.31-43.61-9.04-11.44-16.05-23.92-21.03-37.43-4.98-13.5-7.47-27.18-7.47-41.03,0-16.59,3.23-32.36,9.7-47.3,6.46-14.94,15.25-27.75,26.35-38.46,11.1-10.7,24.38-19.2,39.83-25.49,15.45-6.29,31.76-9.44,48.93-9.44ZM1078.67,18.27c-11.83,4.64-19.53,11.28-28.45,20.81-8.92,9.53-15.44,20.64-19.56,33.32-3.77,11.07-5.1,23.89-3.99,38.45,1.11,14.57,4.57,29.25,10.39,44.06,15.02,38.25,37.01,61.83,65.96,70.75,21.1,7.09,38.36,7.39,57.11.03,11.61-4.56,18.85-11.22,28.03-21.03,9.18-9.81,15.84-20.88,19.98-33.2,3.83-10.6,5.1-23.33,3.81-38.2-1.29-14.86-4.8-29.59-10.53-44.19-14.68-37.39-36.65-61.23-65.89-71.51-21.36-6.49-38.21-6.6-56.85.72Z"/><path d="M622.5,223.52c-1.81-5.82-2.74-14.35-2.82-25.53-.04,0-.08,0-.12.01-.02-1.24-.09-2.5-.09-3.74V48.77c0-8.3.55-16.78,1.53-25.41.21-.83.44-1.62.68-2.36,2-6.12,5.58-11.3,10.73-15.54v-2.06h-55.11v2.06c5.38,4.12,9.01,9.21,10.9,15.28.7,2.26,1.27,4.95,1.71,8.03.61,6.77.94,13.44.94,20v139.44c-12.03,22.06-39.15,33.06-66.36,33.06-17.23,0-37.8-9.09-47.44-20.88-9.64-11.79-14.45-33.78-14.45-65.97,0,0,.41-88.55.59-88.46.1-10.81,1.08-19.15,2.98-24.96,2-6.12,5.83-11.3,10.98-15.54v-2.06h-55.35v2.06c5.38,4.12,9.01,9.21,10.9,15.28,1.81,5.82,2.74,14.35,2.82,25.53.03,0,.13,91.55.13,91.55,0,15.64,1.41,30.66,4.25,45.06,2.83,14.4,9.28,29.94,22.27,41.02,16.85,14.37,38.44,15.73,53.14,15.73,20.86,0,41.05,3.56,60.41-14.62,5.06-4.75,10.77-10.53,15.13-15.91v25.11c-.05,4.01-.08,5.68-.08,5.68h42.62v-2.06c-5.38-4.12-9.01-8.23-10.9-14.29Z"/><path d="M738.51,456.38h29.95v8.73h-39.12v-59.38h9.17v50.64Z"/><path d="M826.7,405.74h9.17v33.35c0,8.27-2.29,14.9-6.85,19.91-4.57,5.01-10.64,7.51-18.21,7.51s-13.65-2.5-18.25-7.51c-4.6-5.01-6.9-11.64-6.9-19.91v-33.35h9.17v33.35c0,5.65,1.45,10.17,4.36,13.58s6.78,5.11,11.61,5.11,8.61-1.7,11.53-5.11,4.37-7.93,4.37-13.58v-33.35Z"/><path d="M908.51,405.74l-20.08,29.69,20.08,29.69h-11.18l-15.72-23.75-15.72,23.75h-11.18l20.08-29.69-19.82-29.69h11.18l15.46,23.75,15.72-23.75h11.18Z"/><path d="M968.41,405.74h9.17v33.35c0,8.27-2.29,14.9-6.85,19.91-4.57,5.01-10.64,7.51-18.21,7.51s-13.65-2.5-18.25-7.51c-4.6-5.01-6.9-11.64-6.9-19.91v-33.35h9.17v33.35c0,5.65,1.45,10.17,4.36,13.58s6.78,5.11,11.61,5.11,8.61-1.7,11.53-5.11,4.37-7.93,4.37-13.58v-33.35Z"/><path d="M1034.95,465.11l-13.8-23.92h-12.66v23.92h-9.17v-59.38h25.67c5.59,0,10.26,1.68,14.01,5.02,3.75,3.35,5.63,7.55,5.63,12.62,0,3.96-1.21,7.5-3.62,10.61-2.42,3.12-5.66,5.22-9.74,6.33l14.32,24.8h-10.65ZM1008.49,414.47v17.9h16.5c3.2,0,5.75-.84,7.64-2.53,1.89-1.69,2.84-3.81,2.84-6.37s-.96-4.77-2.88-6.46c-1.92-1.69-4.45-2.53-7.6-2.53h-16.5Z"/><path d="M1113.01,405.74l-23.4,35.1v24.27h-9.17v-24.27l-23.4-35.1h11.18l16.85,25.93,16.77-25.93h11.18Z"/><path d="M1201.9,405.74h9.17v59.38h-7.42l-33.62-42.79v42.79h-9.17v-59.38h7.33l33.71,42.87v-42.87Z"/><path d="M1279.7,465.11l-5.94-14.41h-28.55l-5.85,14.41h-9.96l24.71-59.38h10.56l24.97,59.38h-9.95ZM1248.79,441.97h21.39l-10.74-26.2-10.65,26.2Z"/><path d="M1306.85,405.74h9.17v59.38h-9.17v-59.38Z"/><path d="M1350.25,456.38h29.95v8.73h-39.12v-59.38h9.17v50.64Z"/><path d="M1471.36,465.11l-5.94-14.41h-28.55l-5.85,14.41h-9.95l24.71-59.38h10.57l24.97,59.38h-9.96ZM1440.45,441.97h21.39l-10.74-26.2-10.65,26.2Z"/><path d="M1533.09,405.74v8.73h-17.81v50.64h-9.17v-50.64h-17.81v-8.73h44.79Z"/><path d="M1592.29,414.47h-29.95v16.59h20.96v8.73h-20.96v16.59h29.95v8.73h-39.12v-59.38h39.12v8.73Z"/><path d="M1622.07,456.38h29.95v8.73h-39.12v-59.38h9.17v50.64Z"/><path d="M1670.79,405.74h9.17v59.38h-9.17v-59.38Z"/><path d="M1744.14,414.47h-29.95v16.59h20.96v8.73h-20.96v16.59h29.95v8.73h-39.12v-59.38h39.12v8.73Z"/><path d="M1800.37,465.11l-13.8-23.92h-12.66v23.92h-9.17v-59.38h25.67c5.59,0,10.26,1.68,14.01,5.02,3.75,3.35,5.63,7.55,5.63,12.62,0,3.96-1.21,7.5-3.63,10.61-2.42,3.12-5.66,5.22-9.73,6.33l14.32,24.8h-10.65ZM1773.91,414.47v17.9h16.5c3.2,0,5.75-.84,7.64-2.53,1.89-1.69,2.84-3.81,2.84-6.37s-.96-4.77-2.88-6.46-4.45-2.53-7.6-2.53h-16.5Z"/><path d="M275.29,574.76h-29.95v16.59h20.96v8.73h-20.96v16.59h29.95v8.73h-39.12v-59.38h39.12v8.73Z"/><path d="M345.93,566.03l-20.08,29.69,20.08,29.69h-11.18l-15.72-23.75-15.72,23.75h-11.18l20.08-29.69-19.82-29.69h11.18l15.46,23.75,15.72-23.75h11.18Z"/><path d="M391.42,566.03c5.59,0,10.26,1.67,14.01,5.02,3.76,3.35,5.63,7.55,5.63,12.62s-1.85,9.23-5.54,12.66c-3.7,3.44-8.4,5.15-14.1,5.15h-16.51v23.92h-9.17v-59.38h25.67ZM391.42,592.66c3.2,0,5.75-.84,7.64-2.53,1.89-1.69,2.84-3.81,2.84-6.37s-.96-4.78-2.88-6.46-4.45-2.53-7.6-2.53h-16.51v17.9h16.51Z"/><path d="M462.93,625.4l-13.8-23.92h-12.66v23.92h-9.17v-59.38h25.67c5.59,0,10.26,1.67,14.02,5.02,3.75,3.35,5.63,7.55,5.63,12.62,0,3.96-1.21,7.49-3.63,10.61-2.42,3.11-5.66,5.22-9.74,6.33l14.32,24.8h-10.65ZM436.48,574.76v17.9h16.5c3.2,0,5.75-.84,7.64-2.53,1.89-1.69,2.84-3.81,2.84-6.37s-.96-4.78-2.88-6.46c-1.92-1.69-4.45-2.53-7.6-2.53h-16.5Z"/><path d="M530.86,574.76h-29.95v16.59h20.96v8.73h-20.96v16.59h29.95v8.73h-39.12v-59.38h39.12v8.73Z"/><path d="M594.52,608.29c0,5.47-2.12,9.93-6.37,13.36-4.25,3.44-9.81,5.15-16.68,5.15-6.29,0-11.63-1.45-16.02-4.36s-7.09-6.66-8.08-11.26l8.73-3.32c.88,3.09,2.74,5.56,5.59,7.42,2.85,1.86,6.34,2.8,10.48,2.8s7.14-.86,9.56-2.58,3.63-3.92,3.63-6.59c0-1.16-.28-2.18-.83-3.06-.56-.87-1.21-1.6-1.97-2.18-.76-.58-1.92-1.14-3.49-1.66s-2.98-.92-4.23-1.18c-1.25-.26-3.04-.62-5.37-1.09-2.62-.52-4.94-1.14-6.94-1.83-2.01-.7-4.03-1.69-6.07-2.97-2.04-1.28-3.62-2.97-4.76-5.06-1.14-2.1-1.7-4.54-1.7-7.34,0-5.35,1.99-9.68,5.98-12.97,3.99-3.29,9.15-4.93,15.5-4.93,5.94,0,10.91,1.41,14.93,4.24,4.01,2.82,6.52,6.62,7.51,11.39l-8.64,3.32c-.7-3.03-2.28-5.47-4.76-7.34-2.48-1.86-5.6-2.79-9.39-2.79-3.44,0-6.28.77-8.56,2.31-2.27,1.54-3.41,3.59-3.41,6.16s1.15,4.5,3.45,5.81c2.3,1.31,5.78,2.46,10.44,3.45,2.09.47,3.77.86,5.02,1.18,1.25.32,2.85.8,4.8,1.44,1.95.64,3.49,1.36,4.63,2.14s2.32,1.74,3.54,2.88,2.11,2.51,2.66,4.1c.55,1.6.83,3.39.83,5.37Z"/><path d="M658.09,608.29c0,5.47-2.12,9.93-6.37,13.36-4.25,3.44-9.81,5.15-16.68,5.15-6.29,0-11.63-1.45-16.02-4.36s-7.09-6.66-8.08-11.26l8.73-3.32c.87,3.09,2.74,5.56,5.59,7.42,2.85,1.86,6.34,2.8,10.48,2.8s7.14-.86,9.56-2.58c2.42-1.72,3.63-3.92,3.63-6.59,0-1.16-.28-2.18-.83-3.06-.56-.87-1.21-1.6-1.97-2.18-.76-.58-1.92-1.14-3.49-1.66s-2.98-.92-4.24-1.18c-1.25-.26-3.04-.62-5.37-1.09-2.62-.52-4.93-1.14-6.94-1.83-2.01-.7-4.03-1.69-6.07-2.97-2.04-1.28-3.62-2.97-4.76-5.06-1.14-2.1-1.7-4.54-1.7-7.34,0-5.35,1.99-9.68,5.98-12.97,3.99-3.29,9.15-4.93,15.5-4.93,5.94,0,10.91,1.41,14.93,4.24,4.02,2.82,6.52,6.62,7.51,11.39l-8.64,3.32c-.7-3.03-2.29-5.47-4.76-7.34-2.47-1.86-5.6-2.79-9.38-2.79-3.44,0-6.29.77-8.56,2.31-2.27,1.54-3.4,3.59-3.4,6.16s1.15,4.5,3.45,5.81c2.3,1.31,5.78,2.46,10.44,3.45,2.09.47,3.77.86,5.02,1.18,1.25.32,2.85.8,4.8,1.44,1.95.64,3.49,1.36,4.63,2.14,1.13.79,2.31,1.74,3.54,2.88s2.11,2.51,2.66,4.1c.55,1.6.83,3.39.83,5.37Z"/><path d="M677.47,566.03h9.17v59.38h-9.17v-59.38Z"/><path d="M736.67,626.8c-8.67,0-16.04-3.01-22.09-9.04-6.05-6.03-9.08-13.37-9.08-22.05s3.03-16.02,9.08-22.05c6.06-6.02,13.42-9.04,22.09-9.04s15.85,3.03,21.88,9.08c6.02,6.06,9.04,13.39,9.04,22s-3.01,15.95-9.04,22c-6.03,6.05-13.32,9.08-21.88,9.08ZM736.67,618.07c6.11,0,11.26-2.15,15.45-6.46,4.19-4.31,6.29-9.61,6.29-15.89s-2.08-11.5-6.24-15.81c-4.16-4.31-9.33-6.46-15.5-6.46s-11.53,2.14-15.72,6.42c-4.19,4.28-6.29,9.56-6.29,15.85s2.11,11.59,6.33,15.89c4.22,4.31,9.44,6.46,15.67,6.46Z"/><path d="M826.87,566.03h9.17v59.38h-7.42l-33.62-42.79v42.79h-9.17v-59.38h7.33l33.71,42.87v-42.87Z"/><path d="M864.5,612.83c1.86,0,3.48.67,4.85,2.01s2.05,2.97,2.05,4.89-.69,3.57-2.05,4.93-2.98,2.05-4.85,2.05-3.57-.68-4.93-2.05c-1.37-1.37-2.05-3.01-2.05-4.93s.68-3.55,2.05-4.89c1.37-1.34,3.01-2.01,4.93-2.01Z"/><path d="M1034.16,574.76h-29.95v16.59h20.96v8.73h-20.96v16.59h29.95v8.73h-39.12v-59.38h39.12v8.73Z"/><path d="M1063.94,616.67h29.95v8.73h-39.12v-59.38h9.17v50.64Z"/><path d="M1151.17,574.76h-29.95v16.59h20.96v8.73h-20.96v16.59h29.95v8.73h-39.12v-59.38h39.12v8.73Z"/><path d="M1215.26,566.03h9.87l-23.31,59.38h-11.35l-23.05-59.38h9.87l18.86,49.6,19.12-49.6Z"/><path d="M1278.91,625.4l-5.94-14.41h-28.55l-5.85,14.41h-9.96l24.71-59.38h10.57l24.97,59.38h-9.96ZM1248,602.26h21.39l-10.74-26.2-10.65,26.2Z"/><path d="M1340.65,566.03v8.73h-17.81v50.64h-9.17v-50.64h-17.81v-8.73h44.79Z"/><path d="M1361.34,566.03h9.17v59.38h-9.17v-59.38Z"/><path d="M1420.54,626.8c-8.67,0-16.04-3.01-22.09-9.04-6.05-6.03-9.08-13.37-9.08-22.05s3.03-16.02,9.08-22.05c6.06-6.02,13.42-9.04,22.09-9.04s15.85,3.03,21.88,9.08c6.02,6.06,9.04,13.39,9.04,22s-3.01,15.95-9.04,22c-6.03,6.05-13.32,9.08-21.88,9.08ZM1420.54,618.07c6.11,0,11.26-2.15,15.45-6.46,4.19-4.31,6.29-9.61,6.29-15.89s-2.08-11.5-6.24-15.81c-4.16-4.31-9.33-6.46-15.5-6.46s-11.53,2.14-15.72,6.42c-4.19,4.28-6.29,9.56-6.29,15.85s2.11,11.59,6.33,15.89c4.22,4.31,9.44,6.46,15.67,6.46Z"/><path d="M1510.74,566.03h9.17v59.38h-7.42l-33.62-42.79v42.79h-9.17v-59.38h7.34l33.7,42.87v-42.87Z"/><path d="M1548.37,612.83c1.86,0,3.48.67,4.84,2.01,1.37,1.34,2.05,2.97,2.05,4.89s-.68,3.57-2.05,4.93c-1.37,1.37-2.98,2.05-4.84,2.05s-3.57-.68-4.93-2.05-2.05-3.01-2.05-4.93.69-3.55,2.05-4.89,3.01-2.01,4.93-2.01Z"/><path d="M1718.03,574.76h-29.95v16.59h20.96v8.73h-20.96v16.59h29.95v8.73h-39.12v-59.38h39.12v8.73Z"/><path d="M1788.67,566.03l-20.08,29.69,20.08,29.69h-11.18l-15.72-23.75-15.72,23.75h-11.18l20.08-29.69-19.82-29.69h11.18l15.45,23.75,15.72-23.75h11.18Z"/><path d="M1834.16,566.03c5.59,0,10.26,1.67,14.01,5.02s5.63,7.55,5.63,12.62-1.85,9.23-5.54,12.66c-3.7,3.44-8.4,5.15-14.1,5.15h-16.5v23.92h-9.17v-59.38h25.67ZM1834.16,592.66c3.2,0,5.75-.84,7.64-2.53,1.89-1.69,2.84-3.81,2.84-6.37s-.96-4.78-2.88-6.46-4.45-2.53-7.6-2.53h-16.5v17.9h16.5Z"/><path d="M1909.16,574.76h-29.95v16.59h20.96v8.73h-20.96v16.59h29.95v8.73h-39.12v-59.38h39.12v8.73Z"/><path d="M1965.4,625.4l-13.8-23.92h-12.66v23.92h-9.17v-59.38h25.67c5.59,0,10.26,1.67,14.01,5.02,3.76,3.35,5.63,7.55,5.63,12.62,0,3.96-1.21,7.49-3.62,10.61s-5.66,5.22-9.73,6.33l14.32,24.8h-10.65ZM1938.94,574.76v17.9h16.51c3.2,0,5.75-.84,7.64-2.53,1.89-1.69,2.84-3.81,2.84-6.37s-.96-4.78-2.88-6.46-4.45-2.53-7.6-2.53h-16.51Z"/><path d="M1994.82,566.03h9.17v59.38h-9.17v-59.38Z"/><path d="M2068.17,574.76h-29.95v16.59h20.96v8.73h-20.96v16.59h29.95v8.73h-39.12v-59.38h39.12v8.73Z"/><path d="M2129.82,566.03h9.17v59.38h-7.42l-33.62-42.79v42.79h-9.17v-59.38h7.34l33.71,42.87v-42.87Z"/><path d="M2206.66,583.4c-1.92-3.09-4.48-5.51-7.68-7.29-3.2-1.77-6.72-2.66-10.57-2.66-6.29,0-11.53,2.14-15.72,6.42-4.19,4.28-6.29,9.56-6.29,15.85s2.11,11.59,6.33,15.89c4.22,4.31,9.44,6.46,15.67,6.46,3.84,0,7.35-.9,10.52-2.71,3.17-1.8,5.75-4.25,7.73-7.34l7.77,4.63c-2.8,4.31-6.49,7.74-11.09,10.3-4.6,2.56-9.58,3.84-14.93,3.84-8.67,0-16.04-3.01-22.09-9.04-6.05-6.03-9.08-13.37-9.08-22.05s3.03-16.02,9.08-22.05c6.06-6.02,13.42-9.04,22.09-9.04,5.36,0,10.33,1.28,14.93,3.84,4.6,2.56,8.29,6.02,11.09,10.39l-7.77,4.54Z"/><path d="M2271.8,574.76h-29.95v16.59h20.96v8.73h-20.96v16.59h29.95v8.73h-39.12v-59.38h39.12v8.73Z"/><path d="M2297.29,612.83c1.86,0,3.48.67,4.85,2.01,1.36,1.34,2.05,2.97,2.05,4.89s-.69,3.57-2.05,4.93c-1.37,1.37-2.98,2.05-4.85,2.05s-3.57-.68-4.93-2.05-2.05-3.01-2.05-4.93.68-3.55,2.05-4.89,3.01-2.01,4.93-2.01Z"/></svg>